Coordinates
version=1
nRows=7
nColumns=40
inDegrees=yes

Units are S.I. units (second, meters, Newtons, ...)
Angles are in degrees.

endheader
time	pelvis_tilt	pelvis_list	pelvis_rotation	pelvis_tx	pelvis_ty	pelvis_tz	hip_flexion_r	hip_adduction_r	hip_rotation_r	knee_angle_r	knee_angle_r_beta	ankle_angle_r	subtalar_angle_r	mtp_angle_r	hip_flexion_l	hip_adduction_l	hip_rotation_l	knee_angle_l	knee_angle_l_beta	ankle_angle_l	subtalar_angle_l	mtp_angle_l	lumbar_extension	lumbar_bending	lumbar_rotation	arm_flex_r	arm_add_r	arm_rot_r	elbow_flex_r	pro_sup_r	wrist_flex_r	wrist_dev_r	arm_flex_l	arm_add_l	arm_rot_l	elbow_flex_l	pro_sup_l	wrist_flex_l	wrist_dev_l
     28.28250000	     -5.86887318	     -5.48603665	      1.36434857	      1.05147476	      0.91820228	      0.44661168	     25.45721416	      0.06586930	    -12.06671374	     22.42984886	     22.42984886	      5.17276087	     -3.16750020	      3.11600318	     -0.37280070	    -12.11137137	     -9.80729706	     28.14755749	     28.14755749	     14.62933904	     -0.45336005	    -15.75651101	    -10.08786611	      2.77719595	      1.23457898	    -16.53582408	    -14.57408154	      2.12969742	     35.35371754	     45.70471969	      0.00000000	      0.00000000	     15.48335594	    -18.35069945	     -8.99915882	    104.87368866	     48.67703196	      0.00000000	      0.00000000
     28.29400000	     -5.96071622	     -5.75605024	      1.50391683	      1.05290724	      0.91926405	      0.44972638	     24.74928970	      0.49862419	    -12.58763221	     22.20502756	     22.20502756	      5.72917765	     -2.71949667	      2.94264305	      0.97138669	    -12.95080905	     -9.00497338	     31.23753407	     31.23753407	     13.11879899	     -1.82069413	    -16.09091583	    -10.08749138	      2.90709446	      1.41161699	    -15.49994490	    -14.50247032	      2.06309621	     36.08149767	     45.68706574	      0.00000000	      0.00000000	     14.06576794	    -17.86529614	     -8.79180752	    104.16481073	     48.64401052	      0.00000000	      0.00000000
     28.30550000	     -6.15779069	     -5.74368944	      1.60943291	      1.05405767	      0.92007256	      0.45243519	     24.26180678	      0.51847884	    -13.25793781	     22.18943566	     22.18943566	      6.36885559	     -1.68779036	      2.72813981	      2.59551444	    -13.13748745	     -7.39844212	     34.37131993	     34.37131993	     10.61629232	     -5.07822040	    -17.07925942	     -9.97498678	      2.77613225	      1.15991782	    -14.56115434	    -14.59431428	      2.01761305	     38.11893394	     45.61468363	      0.00000000	      0.00000000	     12.30873682	    -17.41982631	     -9.32756302	    102.99005056	     48.65223324	      0.00000000	      0.00000000
     28.31700000	     -6.25019202	     -5.96760952	      1.67951105	      1.05521708	      0.92077625	      0.45541161	     23.56052289	      0.93208871	    -13.68131732	     21.92165936	     21.92165936	      6.87810916	     -1.17223003	      2.58890192	      4.40828865	    -13.79016803	     -6.28276607	     38.05066121	     38.05066121	      8.53542680	     -6.93070748	    -17.22253054	     -9.99235738	      2.87188534	      1.38405819	    -13.42188511	    -14.61776557	      2.00818583	     39.16114850	     45.58216625	      0.00000000	      0.00000000	     10.88381973	    -16.90850286	     -9.13466159	    101.92313357	     48.61248945	      0.00000000	      0.00000000
     28.32850000	     -6.35749500	     -6.08178463	      1.74794785	      1.05613154	      0.92128147	      0.45809642	     22.98145063	      1.17311398	    -14.11988329	     21.83208010	     21.83208010	      7.38689007	     -0.59350752	      2.38385304	      6.43722832	    -14.09301111	     -4.77605561	     41.88086826	     41.88086826	      6.22448736	     -9.46677886	    -16.79384184	     -9.98890774	      2.89035404	      1.43193824	    -12.14794147	    -14.72557107	      1.96005533	     40.52734938	     45.54010252	      0.00000000	      0.00000000	      9.40309907	    -16.45360094	     -9.04755479	    100.30573943	     48.56766857	      0.00000000	      0.00000000
     28.34000000	     -6.40695389	     -5.88607517	      1.79469580	      1.05692614	      0.92179482	      0.46039276	     22.44551524	      1.01161328	    -14.55325397	     21.97885895	     21.97885895	      8.04408489	      0.28879539	      2.08876781	      8.46691669	    -13.68648765	     -2.84648603	     45.65929174	     45.65929174	      3.91072753	    -12.74398880	    -15.11917533	    -10.07825479	      2.60092199	      1.58427238	    -11.39393088	    -15.04420293	      2.20448491	     43.44313758	     45.42172421	      0.00000000	      0.00000000	      8.30065516	    -15.73265388	     -9.42419670	     97.57275158	     48.53458390	      0.00000000	      0.00000000
     28.35150000	     -6.47966531	     -6.02021654	      1.85994315	      1.05748612	      0.92199849	      0.46281355	     21.87349551	      1.31353088	    -14.72401135	     21.90249821	     21.90249821	      8.53312944	      0.53661964	      1.91698201	     10.79204129	    -13.82340946	     -1.33919982	     49.68921241	     49.68921241	      1.98521409	    -14.52077565	    -13.71286411	    -10.09684734	      2.68086270	      1.68171117	     -9.97824936	    -15.19803980	      2.16014870	     44.92696607	     45.37779628	      0.00000000	      0.00000000	      6.96961669	    -15.30388552	     -9.13589157	     95.46792166	     48.46805066	      0.00000000	      0.00000000
